<svg xmlns="http://www.w3.org/2000/svg" width="328" height="185" viewBox="0 0 328 185">
    <g fill="none" fill-rule="evenodd">
        <path fill="#FFF" d="M0 0H328V185H0z"/>
        <g transform="translate(86 9)">
            <ellipse cx="76.317" cy="98.631" fill="#F2F2F2" fill-rule="nonzero" rx="62.849" ry="62.765"/>
            <path fill="#F3431C" d="M2.545 91.83l135.025-7.767c1.501-.066 2.806 1.119 2.806 2.633l2.154 77.54c.065 1.513-1.175 2.764-2.676 2.764L3.133 165.75c-1.436 0-2.61-1.185-2.676-2.7L0 94.53c0-1.448 1.11-2.633 2.545-2.699z"/>
            <path fill="#8B89A5" fill-rule="nonzero" d="M59.482 104.235L57.237 103.409 57.505 102.524 58.092 101.993z"/>
            <path fill="#D64B34" fill-rule="nonzero" d="M67.469 88.544l-8.712 17.037-2.358 3.003s18.799 26.894 20.83 27.743c2.03.848 3.537.914 3.537.914l-1.9 1.305s6.157 7.573 6.42 7.768c.261.196-4.913 1.632-4.913 1.632s-3.8-2.154-4.585-3.002c-.787-.85-6.289-7.9-6.289-7.9s-7.27-6.396-7.598-7.18c-.328-.783-4.323-5.483-4.323-5.483l-5.11-8.03-1.964-6.462.524-5.613 9.039-13.709 7.402-2.023z"/>
            <path fill="#8B89A5" fill-rule="nonzero" d="M39.28 93.151s3.438 2.927 4.42 3.238l1.192-1.93-3.998-1.432h-.35l-1.263.124z"/>
            <path fill="#CFCCDF" fill-rule="nonzero" d="M113.353 86.18l-45.855 2.495-7.1 15.56c-.52-.722-1.106-1.444-1.693-2.101l.066-.066-1.954-5.515-4.104-1.641-6.643-1.379s-.196.329-.456.854c-2.997-.985-5.211-1.379-5.211-1.379l15.046-25.145L76.03 57.16l6.318 2.167 3.908 2.757 6.383-2.495 13.743 10.242 6.97 16.348z"/>
            <path fill="#A0616A" fill-rule="nonzero" d="M92.704 49.352c-.197 0-.263-.064-.263-.064l.329 9.668c.263.78.394 1.558.394 2.337 0 2.206-1.183 4.218-4.404 4.802-8.545.648-13.015-8.501-13.015-8.501l-.986-17.91c-.328.973-3.944.908-4.995-4.608-1.052-5.516 2.826-5.45 2.826-5.45l-.657-4.219.986-4.866 6.31-3.83s3.812-.843 4.207-.908c.394-.064 9.137-1.233 9.137-1.233s4.864 2.142 8.413 8.696c.46 25.697-6.836 26.216-8.282 26.086z"/>
            <path fill="#2F2E40" fill-rule="nonzero" d="M97.904 9.57s-2.48 3.304-10.18 0c-1.24-.528-2.546-.726-3.85-.528-3.72.595-7.897 3.105-9.137 7.995 0 0-5.938-2.313-6.265 5.286-.326 7.599 6.135 12.422 6.135 12.422l1.631-7.466s3.785-1.52 3.59-6.476c0 0 8.874 5.22 15.922-.991 0 0 5.09 3.172 5.025 7.4 0 0 1.501-8.655-3.132-11.96 0 .067.979-3.7.26-5.682z"/>
            <path fill="#824E58" fill-rule="nonzero" d="M93.151 61.644c-5.036-1.683-7.856-15.691-7.856-15.691 2.753 4.108 7.252 3.03 7.252 3.03l.134.203c-.201 0-.269-.068-.269-.068l.336 10.035c.269.875.403 1.683.403 2.491z"/>
            <path fill="#2F2E40" fill-rule="nonzero" d="M140.498 32.503L133.554 52.942 136.332 53.799 143.655 33.492z"/>
            <path fill="#A0616A" fill-rule="nonzero" d="M135.67 43.711l-8.278 6.085s1.325 4.1-.132 7.407c-1.457 3.307-13.907 29.099-13.907 29.099l15.165-1.587s3.18-21.494 9.603-27.446c4.172-3.439 6.292-4.63 6.623-5.82.33-1.19-1.855-7.076-4.504-7.275-2.649-.198-3.179 5.423-3.179 5.423l-.86 3.109-2.186-.53c-.066-.066 2.65-7.671 1.656-8.465z"/>
            <path fill="#CFCCDF" fill-rule="nonzero" d="M58.36 101.925l-.067.068c-3.867-4.243-9.334-6.707-13.4-8.076.332-.548.466-.89.466-.89l6.8 1.437 4.2 1.711 2 5.75z"/>
            <path fill="#A0616A" fill-rule="nonzero" d="M86.417 147.315c-.391 2.166-3.848.919-3.848.919-.587 2.232-2.674 1.51-2.674 1.51-1.892 1.247-5.348-.46-6.457-1.116-1.109-.657-2.153-3.873-4.305-6.63-2.152-2.757-31.764-28.553-32.09-29.997-.26-1.247 6.523-14.309 8.349-17.853 3.978 1.312 9.327 3.675 13.11 7.745l-4.11 7.089s4.827 5.71 10.306 14.572c5.479 8.861 9.327 11.027 11.675 12.274 2.413 1.247 5.74.132 5.61 1.576-.066 1.444-4.175 2.231-4.175 2.231s8.61 5.71 8.61 7.68z"/>
            <path stroke="#F3431C" stroke-width=".79" d="M156 0v20.995l-8.884.196-4.604 5.708s-4.02-4.067-5.576-6.036l-10.116.132V0H156z"/>
            <path stroke="#F3431C" stroke-width=".79" d="M134.676 10.513L138.851 14.57 148.144 5.604"/>
            <ellipse cx="14.029" cy="107.037" stroke="#FFF" stroke-width=".833" rx="5.05" ry="5.044"/>
            <ellipse cx="20.763" cy="107.037" stroke="#FFF" stroke-width=".833" rx="5.05" ry="5.044"/>
            <path stroke="#FFF" stroke-width=".833" d="M11.223 145.144L50.504 145.144M11.223 149.628L29.18 149.628"/>
            <path fill="#FFF" fill-rule="nonzero" d="M120.901 113.583l-21.252.74c-.842 0-1.49-.672-1.555-1.478L97.64 98.74c0-.873.648-1.545 1.426-1.612l21.252-.739c.842 0 1.49.672 1.555 1.478l.453 14.104c.065.874-.583 1.612-1.425 1.612z"/>
            <path stroke="#FFF" stroke-width=".833" d="M126.26 153.55H95.956c-2.16 0-3.927-1.765-3.927-3.922h0c0-2.158 1.767-3.923 3.927-3.923h30.304c2.16 0 3.927 1.765 3.927 3.923h0c0 2.157-1.767 3.922-3.927 3.922z"/>
            <path stroke="#FF5029" stroke-width=".5" d="M95.396 103.114L123.453 101.993M95.396 107.597L123.453 106.477"/>
            <path stroke="#F3431C" stroke-width=".5" d="M113.353 90.785L114.475 118.805M104.374 90.785L105.496 118.805"/>
        </g>
    </g>
</svg>
